<svg xmlns="http://www.w3.org/2000/svg" viewBox="0 0 677.45 312.13"><defs><style>.cls-1{fill:#57595b;}.cls-2{fill:#2f86bc;}.cls-3{fill:#13a1de;}</style></defs><title>reef_supervisor_banner_smile</title><g id="text"><path class="cls-1" d="M174.93,206.68a3.06,3.06,0,0,1-2.94-2.46,23,23,0,0,0-3.42-8.82,10.59,10.59,0,0,0-4.2-3.66,8.73,8.73,0,0,0-3.48-1c-.78,0-1.62.06-2.46.06a3,3,0,0,1-2.94-2.76,2.91,2.91,0,0,1,2.4-3.18,10.47,10.47,0,0,1,3.06-.18,17,17,0,0,0,7.38-1.86c2.64-1.5,3.9-3.84,3.9-7.38a12.43,12.43,0,0,0-1.32-5.94,8.1,8.1,0,0,0-2.76-2.76,10.53,10.53,0,0,0-4.56-1.26H148.77v38.16a3,3,0,0,1-3,3,3,3,0,0,1-3-3V162.52a3,3,0,0,1,3-3h17.82a15.52,15.52,0,0,1,10.32,4.2,13.85,13.85,0,0,1,3.12,4.8,19.45,19.45,0,0,1,1.2,7c0,5.64-2.4,10-6.9,12.6-.3.18-.6.3-1,.48a18.25,18.25,0,0,1,2.94,3.12,28.23,28.23,0,0,1,4.56,11.4,3,3,0,0,1-2.34,3.54C175.29,206.62,175.11,206.68,174.93,206.68Z" transform="translate(-28.89 -61)"/><path class="cls-1" d="M217.71,203.74a3,3,0,0,1-3,3H186a3,3,0,0,1-3-3V162.58a3,3,0,0,1,3-3h28.08a3,3,0,0,1,0,6H189V180h22.2a3,3,0,0,1,3,3,3,3,0,0,1-3,3H189v14.7h25.68A3,3,0,0,1,217.71,203.74Z" transform="translate(-28.89 -61)"/><path class="cls-1" d="M257.19,203.74a3,3,0,0,1-3,3H225.51a3,3,0,0,1-3-3V162.58a3,3,0,0,1,3-3h28.08a3,3,0,0,1,0,6H228.51V180h22.2a3,3,0,0,1,3,3,3,3,0,0,1-3,3h-22.2v14.7h25.68A3,3,0,0,1,257.19,203.74Z" transform="translate(-28.89 -61)"/><path class="cls-1" d="M296.19,162.58a3,3,0,0,1-3,3H268v15.06h21.54a3,3,0,0,1,3,3,3,3,0,0,1-3,3H268v17.1a3,3,0,0,1-6,0V162.58a3,3,0,0,1,3-3h28.2A3,3,0,0,1,296.19,162.58Z" transform="translate(-28.89 -61)"/><path class="cls-1" d="M340.83,207.7a31.52,31.52,0,0,1-4.74-.36,23.61,23.61,0,0,1-7.68-2.52,10,10,0,0,1-5.1-5.28c-.72-2.1,1.5-4.74,3.66-3.66a4.41,4.41,0,0,1,1.26,1.32c2.16,2.64,5.52,3.78,8.76,4.32a22.83,22.83,0,0,0,7.86-.12c2.82-.6,5.52-2,6.6-4.8a6.31,6.31,0,0,0,.18-4.32c-1.38-4.08-6.48-5.58-10.8-6.48a45.6,45.6,0,0,1-8.46-2.46c-2.88-1.14-5.76-2.88-7.38-5.64-2-3.3-1.62-8.52-.42-11,3.66-7.32,10.74-8.16,14.88-8.16a25.19,25.19,0,0,1,8.94,1.56c3.3,1.26,5.88,3.42,6.66,5.7a2.85,2.85,0,0,1-.54,2.82,2.5,2.5,0,0,1-3.12.72,9,9,0,0,1-.84-.72,13.63,13.63,0,0,0-5.22-3.42,16.21,16.21,0,0,0-5.88-.78c-4.68,0-10,1.8-10,7.26,0,5,4.38,6.54,14.4,9,12.84,3.12,14.52,10.2,13.32,16.2C355.35,205.84,344.79,207.7,340.83,207.7Z" transform="translate(-28.89 -61)"/><path class="cls-1" d="M382.17,207.46a21.88,21.88,0,0,1-11.22-2.7,16,16,0,0,1-6.18-6.3,22.86,22.86,0,0,1-2.46-10.86v-25a3,3,0,0,1,3-3,3,3,0,0,1,3,3v25a16.88,16.88,0,0,0,1.74,8,10.06,10.06,0,0,0,3.9,4,19.07,19.07,0,0,0,16.43,0,10.15,10.15,0,0,0,3.84-4,17.21,17.21,0,0,0,1.74-8v-25a3,3,0,0,1,3-3,3,3,0,0,1,3,3v25a22.74,22.74,0,0,1-2.46,10.86C397.28,202.6,392.48,207.46,382.17,207.46Z" transform="translate(-28.89 -61)"/><path class="cls-1" d="M409.77,206.74a3,3,0,0,1-3-3V162.58a3,3,0,0,1,3-3h17.81a14.58,14.58,0,0,1,3.55.48,15,15,0,0,1,6.77,3.72,13.85,13.85,0,0,1,3.12,4.8,19.45,19.45,0,0,1,1.2,7c0,5.7-2.4,10-6.89,12.6-3.25,1.86-7.57,2.76-12.91,2.76a3,3,0,0,1,0-6c4.27,0,7.62-.66,9.91-2,2.63-1.5,3.89-3.84,3.89-7.38a11.9,11.9,0,0,0-1.32-5.88,7,7,0,0,0-2.76-2.76,10.07,10.07,0,0,0-4.56-1.32H412.77v38.16A3,3,0,0,1,409.77,206.74Z" transform="translate(-28.89 -61)"/><path class="cls-1" d="M481.7,203.74a3,3,0,0,1-3,3H450a3,3,0,0,1-3-3V162.58a3,3,0,0,1,3-3H478.1a3,3,0,0,1,0,6H453V180h22.19a3,3,0,0,1,3,3,3,3,0,0,1-3,3H453v14.7H478.7A3,3,0,0,1,481.7,203.74Z" transform="translate(-28.89 -61)"/><path class="cls-1" d="M518.66,206.68a3.06,3.06,0,0,1-2.94-2.46,23,23,0,0,0-3.42-8.82,10.59,10.59,0,0,0-4.2-3.66,8.73,8.73,0,0,0-3.48-1c-.78,0-1.62.06-2.46.06a3,3,0,0,1-2.94-2.76,2.91,2.91,0,0,1,2.4-3.18,10.47,10.47,0,0,1,3.06-.18,17,17,0,0,0,7.38-1.86c2.64-1.5,3.9-3.84,3.9-7.38a12.43,12.43,0,0,0-1.32-5.94,8.1,8.1,0,0,0-2.76-2.76,10.53,10.53,0,0,0-4.56-1.26H492.5v38.16a3,3,0,0,1-3,3,3,3,0,0,1-3-3V162.52a3,3,0,0,1,3-3h17.82a15.52,15.52,0,0,1,10.32,4.2,13.85,13.85,0,0,1,3.12,4.8,19.45,19.45,0,0,1,1.2,7c0,5.64-2.4,10-6.9,12.6-.3.18-.6.3-1,.48a18.25,18.25,0,0,1,2.94,3.12,28.23,28.23,0,0,1,4.56,11.4,3,3,0,0,1-2.34,3.54C519,206.62,518.84,206.68,518.66,206.68Z" transform="translate(-28.89 -61)"/><path class="cls-1" d="M542.18,206.86a3,3,0,0,1-2.82-1.86l-17.15-41.52a3,3,0,0,1,5.58-2.28L542.18,196l14.4-34.8a3,3,0,0,1,5.52,2.28L544.94,205A3,3,0,0,1,542.18,206.86Z" transform="translate(-28.89 -61)"/><path class="cls-1" d="M570.45,206.74a3,3,0,0,1-3-3V162.58a3,3,0,0,1,3-3,3,3,0,0,1,3,3v41.16A3,3,0,0,1,570.45,206.74Z" transform="translate(-28.89 -61)"/><path class="cls-1" d="M596.18,207.7a31.52,31.52,0,0,1-4.74-.36,23.61,23.61,0,0,1-7.68-2.52,10,10,0,0,1-5.1-5.28c-.72-2.1,1.5-4.74,3.66-3.66a4.41,4.41,0,0,1,1.26,1.32c2.16,2.64,5.52,3.78,8.76,4.32a22.83,22.83,0,0,0,7.86-.12c2.82-.6,5.52-2,6.6-4.8a6.31,6.31,0,0,0,.18-4.32c-1.38-4.08-6.48-5.58-10.8-6.48a45.6,45.6,0,0,1-8.46-2.46c-2.88-1.14-5.76-2.88-7.38-5.64-2-3.3-1.62-8.52-.42-11,3.66-7.32,10.74-8.16,14.88-8.16a25.19,25.19,0,0,1,8.94,1.56c3.3,1.26,5.88,3.42,6.66,5.7a2.85,2.85,0,0,1-.54,2.82,2.5,2.5,0,0,1-3.12.72,9,9,0,0,1-.84-.72,13.63,13.63,0,0,0-5.22-3.42,16.21,16.21,0,0,0-5.88-.78c-4.68,0-10,1.8-10,7.26,0,5,4.38,6.54,14.4,9,12.84,3.12,14.52,10.2,13.32,16.2C610.7,205.84,600.14,207.7,596.18,207.7Z" transform="translate(-28.89 -61)"/><path class="cls-1" d="M642,207.76a24.13,24.13,0,0,1-9.6-2,24.83,24.83,0,0,1-7.86-5.28,25.6,25.6,0,0,1-5.28-7.8,24.26,24.26,0,0,1-1.92-9.42,23.35,23.35,0,0,1,2-9.48,24.5,24.5,0,0,1,5.34-7.74,24.83,24.83,0,0,1,7.86-5.28,25.22,25.22,0,0,1,9.66-1.92,24.2,24.2,0,0,1,22.32,15,24.2,24.2,0,0,1,1.86,9.42,24.49,24.49,0,0,1-7,17.22A24.13,24.13,0,0,1,642,207.76Zm.18-42.9a19.18,19.18,0,0,0-7.32,1.44,18.51,18.51,0,0,0-6,4,17.13,17.13,0,0,0-4,5.88,16.86,16.86,0,0,0-1.5,7.08,18.1,18.1,0,0,0,5.46,13,18.57,18.57,0,0,0,13.2,5.52,18.38,18.38,0,0,0,13.08-5.46,18.64,18.64,0,0,0,3.9-5.88,19.38,19.38,0,0,0,1.38-7.14,18.38,18.38,0,0,0-5.22-13A17.87,17.87,0,0,0,642.2,164.86Z" transform="translate(-28.89 -61)"/><path class="cls-1" d="M703,206.68a3.06,3.06,0,0,1-2.94-2.46,23,23,0,0,0-3.42-8.82,10.59,10.59,0,0,0-4.2-3.66,8.73,8.73,0,0,0-3.48-1c-.78,0-1.62.06-2.46.06a3,3,0,0,1-2.94-2.76,2.91,2.91,0,0,1,2.4-3.18,10.47,10.47,0,0,1,3.06-.18,17,17,0,0,0,7.38-1.86c2.64-1.5,3.9-3.84,3.9-7.38a12.43,12.43,0,0,0-1.32-5.94,8.1,8.1,0,0,0-2.76-2.76,10.53,10.53,0,0,0-4.56-1.26H676.88v38.16a3,3,0,0,1-3,3,3,3,0,0,1-3-3V162.52a3,3,0,0,1,3-3H691.7a15.52,15.52,0,0,1,10.32,4.2,13.85,13.85,0,0,1,3.12,4.8,19.45,19.45,0,0,1,1.2,7c0,5.64-2.4,10-6.9,12.6-.3.18-.6.3-1,.48a18.25,18.25,0,0,1,2.94,3.12,28.23,28.23,0,0,1,4.56,11.4,3,3,0,0,1-2.34,3.54C703.4,206.62,703.22,206.68,703,206.68Z" transform="translate(-28.89 -61)"/></g><g id="baleine_smile" data-name="baleine smile"><path class="cls-2" d="M319.87,229c-.25,19.93-8.41,43.67-17.33,60.06a17.88,17.88,0,0,1-1.87,3.16L223.3,292,221,296.24c-.09,39.76,37.57,35.08,37.57,35.08S230.89,351,196.39,351c0,0-41.87-.17-38.61-.46.64-1.73,1.22-3.54,1.73-5.4,2.14-7.77,7.76-20.29,7-26.54a74.37,74.37,0,0,1-6.24,17.09C146.66,362.47,117.89,380,94,370.53l13.61-26.7a75.32,75.32,0,0,1-8.67-3.18A118.53,118.53,0,0,1,88.32,129.76c-5.27-9.29-7-21.32-3.76-33.38,3.92-14.79,19.26-31.1,31.33-35.38,8.37,9.71,6.75,29.65,2.83,44.44q-.59,2.19-1.35,4.26a48.27,48.27,0,0,1,7.45-2.79c14.72-4.17,34.23-6.11,44.07,2.09-4.07,12.15-14.28,25.82-29,30-11.32,3.21-25.87,4.42-35,0,3.1-5.86,4.64-11.37,9-15.38-14,9.38-25,29.56-25,47.38,0,25.81,22.4,42.52,44.51,52.45a63.19,63.19,0,0,0,26,5.55Z" transform="translate(-28.89 -61)"/><path class="cls-3" d="M319.87,229a118,118,0,0,1-14.33,55.06q-2.28,4.19-4.87,8.16L226.3,287l-.32,4.24c-1.3,17,12.25,32.61,32.57,40.08q-2.54,1.41-5.14,2.68a118,118,0,0,1-52,12s-41.87-.17-38.61-.46c.64-1.73,1.22-3.54,1.73-5.4a58,58,0,0,0,2-21.54,74.37,74.37,0,0,1-6.24,17.09c-13.65,26.78-40.23,40.59-59.36,30.84l13.61-26.7q-5.46-1.83-10.67-4.18A118.53,118.53,0,0,1,93.32,124.76c-5.27-9.29-7-21.32-3.76-33.38,3.92-14.79,14.21-25.9,26.28-30.18,8.37,9.71,11.8,24.45,7.88,39.24q-.59,2.19-1.35,4.26a48.27,48.27,0,0,1,7.45-2.79c14.72-4.17,29.52-1,39.36,7.2-4.07,12.15-15,22.62-29.72,26.8a45,45,0,0,1-31.81-2.35,56.24,56.24,0,0,1,11.19-14.94c-14,9.38-25,29.56-25,47.38,0,25.81,17.4,47.52,39.51,57.45a63.19,63.19,0,0,0,26,5.55Z" transform="translate(-28.89 -61)"/><path class="cls-2" d="M267.55,251.82c-1.56-4-8.69-6.1-16.9-4.71s-14.67,5.76-15.38,10.15a7.9,7.9,0,0,1-.34-1.62c-.66-6.38,6.12-12.79,15.13-14.31s16.83,2.42,17.49,8.8A9.54,9.54,0,0,1,267.55,251.82Z" transform="translate(-28.89 -61)"/></g></svg>