<?xml version="1.0" standalone="no"?>
<!DOCTYPE svg PUBLIC "-//W3C//DTD SVG 20010904//EN"
 "http://www.w3.org/TR/2001/REC-SVG-20010904/DTD/svg10.dtd">
<svg version="1.0" xmlns="http://www.w3.org/2000/svg"
 width="800.000000pt" height="800.000000pt" viewBox="0 0 800.000000 800.000000"
 preserveAspectRatio="xMidYMid meet">
<metadata>
Created by potrace 1.11, written by Peter Selinger 2001-2013
</metadata>
<g transform="translate(0.000000,800.000000) scale(0.100000,-0.100000)"
fill="#000000" stroke="none">
<path d="M2358 7970 c-58 -28 -129 -69 -138 -80 -3 -3 -25 -19 -49 -35 -44
-30 -195 -176 -260 -251 -47 -53 -152 -207 -188 -274 -139 -258 -175 -571 -98
-852 2 -5 4 -10 5 -13 3 -5 3 -6 15 -50 4 -16 10 -34 14 -40 3 -5 6 -12 6 -15
1 -3 9 -23 19 -45 16 -37 16 -41 1 -50 -24 -14 -219 -158 -225 -165 -3 -4 -36
-33 -75 -65 -84 -70 -366 -351 -451 -450 -195 -226 -394 -547 -494 -795 -12
-30 -26 -64 -31 -75 -20 -44 -87 -245 -82 -245 3 0 0 -7 -7 -15 -7 -8 -10 -15
-6 -15 3 0 1 -12 -5 -27 -6 -16 -14 -46 -19 -68 -5 -22 -16 -71 -25 -110 -9
-38 -18 -81 -20 -95 -9 -71 -17 -126 -20 -130 -2 -3 -7 -45 -11 -95 -20 -207
-7 -670 21 -783 3 -13 8 -43 11 -65 3 -23 10 -60 16 -82 6 -22 12 -49 14 -60
6 -39 35 -150 44 -175 6 -14 12 -34 14 -45 5 -25 63 -188 83 -235 8 -19 19
-44 23 -55 29 -69 115 -243 157 -315 27 -47 56 -96 64 -110 8 -14 16 -27 19
-30 3 -3 23 -32 45 -65 36 -55 156 -215 180 -241 5 -6 40 -45 77 -86 56 -62
152 -159 237 -238 43 -39 159 -132 241 -191 30 -22 63 -47 73 -55 9 -7 19 -14
21 -14 3 0 40 -22 83 -49 44 -27 120 -70 169 -96 49 -26 94 -50 99 -53 6 -4
12 -7 15 -8 3 0 32 -13 65 -28 33 -16 97 -40 142 -55 45 -14 83 -30 83 -34 0
-4 -77 -159 -171 -343 -94 -185 -169 -337 -167 -338 8 -8 110 -37 170 -50 68
-14 287 -15 358 -1 58 11 142 33 200 53 74 26 248 111 294 145 6 4 35 23 64
42 29 20 62 44 74 53 159 130 288 264 378 395 19 29 41 58 48 65 6 7 12 17 12
22 0 5 6 15 13 22 49 53 172 328 218 485 12 44 33 61 24 21 -3 -13 -7 -34 -9
-48 -3 -14 -8 -36 -11 -50 -3 -14 -8 -35 -10 -46 -4 -18 -128 -400 -180 -551
-10 -32 -11 -43 -2 -44 76 -8 1120 -12 1167 -5 14 2 57 7 95 11 39 4 79 9 90
12 11 2 34 6 50 8 49 7 138 26 170 35 17 5 42 11 57 14 32 5 57 13 183 56 50
17 97 32 105 34 68 17 374 159 485 225 33 20 71 42 85 49 45 23 73 49 66 61
-4 6 -14 11 -21 11 -15 0 -174 75 -230 108 -115 68 -195 131 -293 231 -169
171 -262 370 -271 573 -3 84 4 92 60 77 15 -4 32 -3 40 1 7 5 17 6 22 3 14 -9
117 -9 117 0 0 5 5 5 11 1 15 -9 190 -11 196 -1 2 4 12 4 21 -1 21 -9 133 -8
149 1 6 4 14 3 18 -3 4 -7 12 -7 24 0 10 5 21 6 25 3 8 -8 1224 -11 1234 -3 4
3 13 16 21 30 93 163 128 227 165 304 46 96 116 261 121 286 2 8 9 29 16 45 7
17 14 35 14 40 1 6 13 48 28 95 25 81 58 215 71 290 3 19 8 46 11 60 3 14 8
49 11 79 3 30 7 62 9 71 12 65 25 295 16 307 -3 5 -925 9 -2096 9 -1149 0
-2121 3 -2160 7 -59 5 -174 22 -210 31 -52 13 -76 20 -115 33 -25 8 -52 16
-61 18 -43 9 -237 100 -329 154 -58 35 -179 120 -219 155 -54 47 -218 213
-241 244 -14 19 -30 39 -36 46 -46 49 -204 322 -204 352 0 3 -7 20 -14 37 -22
48 -54 153 -71 237 -41 191 -40 405 1 578 8 37 17 74 19 82 25 112 188 450
236 490 3 3 8 10 10 16 13 37 142 174 183 196 19 10 19 8 -4 -18 -14 -16 -27
-31 -30 -34 -9 -9 -32 -52 -72 -135 -22 -44 -50 -102 -64 -128 -25 -46 -25
-49 -8 -61 17 -13 101 -40 159 -51 81 -15 256 -20 358 -10 32 3 47 1 48 -8 1
-7 2 -415 3 -907 l1 -895 27 -45 c31 -54 70 -84 127 -100 109 -29 227 44 247
154 4 22 7 458 8 969 l1 929 65 36 c190 103 329 238 458 447 62 100 96 168
112 221 l12 40 217 -2 c224 -3 228 -3 319 -30 178 -51 308 -175 367 -349 33
-99 40 -152 39 -300 -1 -202 -55 -337 -172 -436 -138 -116 -370 -186 -632
-191 -142 -2 -215 -19 -265 -63 -22 -19 -36 -35 -31 -35 5 0 1 -9 -8 -19 -10
-11 -19 -35 -21 -53 -2 -18 -5 -37 -6 -43 -7 -22 24 -103 49 -129 71 -71 91
-76 282 -75 81 1 120 -4 172 -20 68 -22 168 -74 224 -116 118 -90 227 -245
297 -425 26 -65 75 -222 83 -263 23 -123 34 -150 79 -193 108 -104 279 -63
327 78 18 51 17 72 -6 183 -12 60 -51 203 -63 235 -4 8 -7 17 -8 20 -1 3 -4
12 -7 20 -3 8 -14 38 -23 65 -29 84 -132 276 -191 355 -30 41 -88 107 -128
146 -70 68 -72 72 -52 82 98 44 286 203 331 280 11 17 23 32 27 32 4 0 8 4 8
9 0 4 18 40 39 80 22 39 38 71 35 71 -2 0 3 17 11 38 80 210 80 543 -2 790
-28 87 -92 222 -105 222 -4 0 -8 5 -8 11 0 27 -199 239 -223 239 -4 0 -17 9
-28 19 -43 40 -245 128 -330 145 -13 2 -44 9 -68 15 -25 5 -48 8 -52 5 -4 -2
-10 -1 -12 3 -3 5 -313 8 -690 8 -530 0 -687 -3 -699 -12 -8 -7 -18 -10 -21
-6 -4 3 -7 1 -7 -5 0 -7 -6 -12 -13 -12 -17 0 -61 -51 -77 -90 -7 -17 -14 -48
-16 -68 -1 -20 -3 -42 -3 -48 -1 -7 -9 -14 -18 -17 -10 -2 -41 -14 -68 -25
l-51 -20 23 71 c13 38 25 84 28 101 2 17 9 58 14 91 15 98 10 280 -11 384 -21
104 -67 231 -110 304 -15 26 -28 52 -28 57 0 6 -4 10 -10 10 -5 0 -10 5 -10
11 0 13 -59 89 -68 88 -4 0 -33 -13 -64 -29z m1372 -6610 c0 -5 -5 -10 -11
-10 -5 0 -7 5 -4 10 3 6 8 10 11 10 2 0 4 -4 4 -10z"/>
<path d="M6419 7245 c-3 -2 -27 -6 -54 -9 -28 -4 -74 -11 -102 -17 -29 -6 -54
-10 -55 -9 -2 0 -34 -11 -73 -25 -38 -14 -74 -27 -80 -28 -5 -1 -12 -4 -15 -7
-3 -3 -36 -21 -74 -40 -38 -19 -81 -45 -94 -57 -14 -13 -28 -23 -31 -23 -13 0
-120 -109 -167 -170 -86 -112 -141 -238 -162 -370 -7 -47 -7 -236 1 -285 6
-39 8 -50 22 -110 4 -16 25 -68 48 -114 33 -67 60 -104 127 -172 114 -116 235
-188 445 -267 44 -16 89 -33 100 -37 11 -5 29 -10 40 -12 11 -1 29 -7 40 -12
20 -10 150 -46 196 -55 13 -2 31 -7 39 -10 8 -3 29 -7 45 -10 26 -4 75 -14
153 -31 98 -22 269 -77 315 -102 18 -10 35 -17 39 -18 4 0 13 -6 19 -12 7 -7
18 -13 24 -13 10 0 125 -88 150 -114 21 -23 61 -83 77 -116 29 -63 36 -97 36
-180 0 -80 -12 -127 -53 -214 -26 -54 -130 -156 -190 -186 -28 -14 -52 -27
-55 -30 -5 -6 -100 -40 -122 -44 -7 -2 -24 -6 -38 -9 -108 -27 -323 -38 -470
-24 -316 31 -573 154 -711 342 -27 37 -58 57 -96 62 -21 3 -40 7 -42 9 -8 7
-77 -28 -104 -54 -71 -67 -88 -147 -52 -237 52 -128 160 -239 304 -316 36 -19
71 -40 79 -46 7 -7 18 -13 23 -13 6 0 29 -8 52 -19 42 -18 77 -33 87 -36 3 -1
32 -9 65 -19 33 -10 67 -20 75 -23 23 -9 75 -20 140 -29 19 -2 44 -7 55 -9 73
-18 395 -26 460 -12 17 4 50 10 75 13 25 3 52 8 60 10 8 2 42 10 76 19 134 33
309 112 410 185 191 138 295 302 341 540 17 84 6 351 -15 385 -4 6 -8 19 -9
30 -5 34 -64 147 -106 205 -46 62 -107 124 -164 166 -21 16 -40 31 -43 35 -11
12 -128 78 -180 102 -103 47 -170 76 -178 77 -4 0 -36 10 -71 20 -34 11 -73
22 -85 25 -11 2 -57 14 -101 25 -44 12 -89 23 -100 26 -11 2 -69 18 -130 35
-60 16 -114 31 -120 33 -9 2 -90 27 -105 31 -3 1 -12 5 -20 8 -8 3 -46 18 -83
31 -167 62 -294 154 -339 244 -12 26 -23 49 -24 52 0 3 -5 14 -9 25 -5 11 -9
65 -9 120 0 77 5 113 22 159 30 81 92 158 171 210 66 44 193 94 261 103 19 3
55 9 80 14 57 10 337 4 410 -9 131 -24 293 -99 393 -182 11 -8 48 -42 84 -75
74 -68 91 -77 150 -76 52 0 92 20 128 63 49 58 61 115 38 191 -37 124 -172
256 -360 350 -52 27 -241 93 -290 102 -15 2 -49 9 -77 14 -28 6 -67 13 -86 16
-40 8 -405 16 -411 10z"/>
</g>
</svg>
